<?xml version="1.0" encoding="utf-8"?>
<svg xmlns="http://www.w3.org/2000/svg" height="512pt" version="1.1" viewBox="0 0 512 512" width="512pt">
<path d="M 0.00 0.00 L 512.00 0.00 L 512.00 512.00 L 0.00 512.00 L 0.00 0.00 Z" fill="#22252a" opacity="1.00" stroke="#22252a" stroke-width="0.25"/>
<path d="M 250.84 140.78 C 252.63 138.12 255.04 133.56 258.89 136.03 C 275.04 158.19 291.13 180.43 307.36 202.55 C 309.01 204.27 307.99 206.43 307.31 208.32 C 303.58 209.14 299.75 208.83 295.97 208.86 C 269.63 208.87 243.28 208.87 216.94 208.88 C 213.22 208.83 209.44 209.20 205.80 208.28 C 205.35 207.15 204.89 206.02 204.42 204.91 C 206.44 200.95 209.44 197.62 211.98 194.01 C 224.91 176.25 237.91 158.54 250.84 140.78 Z" fill="#fcfcfc" opacity="1.00" stroke="#fcfcfc" stroke-width="0.25"/>
<path d="M 224.86 196.78 C 235.77 182.68 245.86 167.94 256.78 153.84 C 267.06 168.27 277.57 182.53 288.14 196.75 C 280.21 196.99 272.27 196.81 264.35 196.86 C 262.03 193.12 259.31 189.65 256.78 186.07 C 253.66 189.42 251.56 193.83 248.12 196.76 C 240.38 196.97 232.61 196.90 224.86 196.78 Z" fill="#22252a" opacity="1.00" stroke="#22252a" stroke-width="0.25"/>
<path d="M 144.55 307.10 C 146.11 307.17 147.67 307.25 149.23 307.35 C 148.78 312.68 148.68 318.06 149.42 323.37 C 152.33 316.88 163.46 317.75 165.23 324.71 C 166.33 330.74 165.60 336.94 165.73 343.04 C 166.19 345.69 162.80 344.18 161.42 344.61 C 161.35 339.39 161.50 334.18 161.39 328.97 C 161.39 326.00 159.30 322.68 155.96 323.14 C 152.57 322.62 149.60 325.49 149.26 328.73 C 148.85 334.00 149.39 339.29 148.85 344.56 C 147.42 344.56 145.99 344.57 144.57 344.57 C 144.54 332.08 144.65 319.59 144.55 307.10 Z" fill="#fafcfd" opacity="1.00" stroke="#fafcfd" stroke-width="0.25"/>
<path d="M 315.17 307.27 C 316.62 307.22 318.07 307.18 319.53 307.14 C 319.48 319.60 319.48 332.07 319.53 344.53 C 318.10 344.53 316.68 344.54 315.26 344.54 C 315.15 332.12 315.23 319.69 315.17 307.27 Z" fill="#feffff" opacity="1.00" stroke="#feffff" stroke-width="0.25"/>
<path d="M 198.87 312.42 C 200.31 312.40 201.76 312.38 203.20 312.36 C 203.31 314.80 203.35 317.24 203.39 319.69 C 205.46 319.65 207.53 319.63 209.61 319.63 C 209.63 320.61 209.68 322.57 209.70 323.55 C 207.58 323.54 205.47 323.53 203.36 323.53 C 203.51 328.80 203.01 334.11 203.63 339.35 C 204.72 341.67 207.65 340.65 209.66 340.60 C 209.66 341.97 209.67 343.34 209.68 344.72 C 205.94 345.65 200.71 345.17 199.37 340.86 C 198.18 335.17 199.13 329.26 198.81 323.49 C 197.39 323.46 195.97 323.44 194.55 323.42 C 194.56 322.49 194.59 320.64 194.61 319.71 C 196.00 319.68 197.39 319.67 198.79 319.65 C 198.81 317.24 198.83 314.83 198.87 312.42 Z" fill="#fbfcfd" opacity="1.00" stroke="#fbfcfd" stroke-width="0.25"/>
<path d="M 353.53 312.35 C 354.96 312.36 356.40 312.35 357.84 312.35 C 357.85 314.77 357.87 317.19 357.91 319.62 C 360.05 319.65 362.19 319.68 364.34 319.73 C 364.35 320.68 364.37 322.58 364.38 323.53 C 362.31 323.52 360.24 323.51 358.17 323.50 C 357.84 328.59 357.48 333.80 358.14 338.86 C 358.88 341.58 362.13 340.70 364.20 340.77 C 364.24 341.73 364.31 343.64 364.34 344.59 C 361.82 344.94 359.11 345.51 356.74 344.26 C 354.35 343.20 353.46 340.42 353.49 338.00 C 353.39 333.18 353.47 328.36 353.48 323.54 C 352.05 323.53 350.62 323.53 349.20 323.53 C 349.18 322.24 349.18 320.95 349.18 319.66 C 350.62 319.66 352.05 319.67 353.51 319.69 C 353.51 317.24 353.51 314.80 353.53 312.35 Z" fill="#fcffff" opacity="1.00" stroke="#fcffff" stroke-width="0.25"/>
<path d="M 118.21 321.20 C 122.73 317.87 130.20 318.25 133.39 323.24 C 133.62 322.08 133.86 320.92 134.09 319.76 C 135.50 319.71 136.91 319.66 138.32 319.61 C 138.27 327.40 138.36 335.19 138.28 342.99 C 138.33 347.91 135.74 353.12 130.90 354.86 C 125.13 356.71 118.36 355.47 113.92 351.22 C 114.88 349.92 115.82 348.62 116.78 347.32 C 119.88 351.65 126.61 353.29 130.98 349.97 C 133.96 347.61 133.82 343.59 133.71 340.17 C 130.11 345.90 121.23 346.10 116.78 341.30 C 111.35 335.88 111.98 325.76 118.21 321.20 Z" fill="#fdfeff" opacity="1.00" stroke="#fdfeff" stroke-width="0.25"/>
<path d="M 220.07 320.02 C 224.88 318.03 231.45 318.98 234.33 323.70 C 236.42 326.59 236.82 330.19 236.74 333.66 C 230.23 333.81 223.72 333.68 217.21 333.72 C 217.47 338.82 223.23 342.82 228.07 341.04 C 229.82 340.30 231.28 339.06 232.81 337.97 C 233.80 338.72 234.79 339.48 235.79 340.23 C 231.39 346.28 221.59 347.02 216.43 341.59 C 210.21 335.61 212.09 323.52 220.07 320.02 Z" fill="#fcffff" opacity="1.00" stroke="#fcffff" stroke-width="0.25"/>
<path d="M 245.76 323.91 C 248.37 317.54 258.51 317.31 261.28 323.68 C 261.64 323.16 262.36 322.10 262.71 321.57 C 265.48 319.55 269.06 318.19 272.47 319.35 C 276.33 320.27 278.45 324.33 278.47 328.06 C 278.59 333.54 278.46 339.03 278.52 344.51 C 277.44 344.51 275.28 344.51 274.20 344.51 C 274.08 339.40 274.24 334.30 274.10 329.20 C 274.06 327.01 272.88 325.13 271.74 323.37 C 268.64 322.94 264.40 322.78 263.27 326.49 C 261.31 332.21 262.72 338.53 262.29 344.49 C 260.78 344.50 259.27 344.50 257.77 344.49 C 257.72 339.26 257.92 334.03 257.68 328.81 C 257.70 326.76 256.43 325.09 255.46 323.41 C 253.45 323.29 251.35 322.91 249.41 323.63 C 247.79 324.81 246.80 326.72 246.36 328.65 C 245.86 333.95 246.43 339.28 245.86 344.58 C 244.43 344.56 243.01 344.55 241.58 344.53 C 241.66 336.25 241.56 327.98 241.59 319.70 C 242.61 319.69 244.64 319.67 245.65 319.65 C 245.69 321.07 245.73 322.49 245.76 323.91 Z" fill="#fbfdfd" opacity="1.00" stroke="#fbfdfd" stroke-width="0.25"/>
<path d="M 289.34 323.12 C 292.28 320.03 296.67 317.96 300.96 319.35 C 307.98 320.91 311.75 329.17 309.78 335.78 C 308.39 341.72 302.05 346.45 295.91 344.96 C 293.24 344.49 291.34 342.46 289.32 340.83 C 289.36 345.66 289.32 350.49 289.27 355.32 C 287.76 355.34 286.26 355.36 284.76 355.38 C 284.90 343.49 284.84 331.60 284.83 319.71 C 286.24 319.73 287.66 319.76 289.08 319.80 C 289.14 320.63 289.28 322.29 289.34 323.12 Z" fill="#fbfcfc" opacity="1.00" stroke="#fbfcfc" stroke-width="0.25"/>
<path d="M 326.18 321.95 C 330.72 319.42 336.67 317.66 341.48 320.47 C 345.01 322.71 345.79 327.18 345.58 331.05 C 345.57 335.52 345.53 339.98 345.55 344.45 C 344.16 344.47 342.76 344.48 341.38 344.51 C 341.39 343.60 341.40 341.79 341.41 340.88 C 338.28 345.47 331.20 346.83 326.96 343.03 C 323.47 340.10 324.02 334.11 327.72 331.59 C 331.78 328.91 336.88 329.36 341.53 329.30 C 341.06 327.23 340.68 324.76 338.58 323.69 C 335.03 321.49 330.95 323.75 327.97 325.86 C 327.37 324.55 326.75 323.25 326.18 321.95 Z" fill="#feffff" opacity="1.00" stroke="#feffff" stroke-width="0.25"/>
<path d="M 371.54 321.58 C 376.25 317.92 384.10 318.04 387.92 322.96 C 390.52 325.90 390.90 329.95 390.78 333.71 C 384.28 333.80 377.78 333.70 371.29 333.73 C 371.98 337.90 375.45 341.74 379.95 341.43 C 382.84 341.87 384.61 339.38 386.89 338.18 C 387.81 338.66 388.72 339.18 389.62 339.73 C 389.58 340.07 389.49 340.75 389.44 341.09 C 384.70 346.00 376.00 346.84 370.93 342.00 C 365.25 336.74 365.72 326.54 371.54 321.58 Z" fill="#feffff" opacity="1.00" stroke="#feffff" stroke-width="0.25"/>
<path d="M 398.80 319.61 C 402.90 318.01 407.17 319.72 410.66 321.92 C 409.58 323.12 408.50 324.31 407.42 325.51 C 405.73 324.23 403.88 323.19 401.92 322.39 C 399.63 323.35 397.33 325.12 398.64 327.90 C 401.89 330.87 407.38 330.11 410.02 333.99 C 411.81 337.22 410.75 341.66 407.55 343.61 C 402.93 346.76 396.92 344.93 392.70 341.97 C 393.62 340.75 394.56 339.56 395.51 338.37 C 398.15 340.97 401.85 342.26 405.35 340.52 C 405.67 339.84 406.30 338.50 406.62 337.83 C 404.34 333.36 398.03 334.49 395.08 330.68 C 392.22 326.98 394.22 320.79 398.80 319.61 Z" fill="#b2b6b8" opacity="1.00" stroke="#b2b6b8" stroke-width="0.25"/>
<path d="M 122.59 323.62 C 129.09 320.70 135.89 327.73 133.96 334.18 C 133.19 339.35 126.65 342.27 122.17 339.71 C 115.82 336.77 116.35 326.39 122.59 323.62 Z" fill="#242529" opacity="1.00" stroke="#242529" stroke-width="0.25"/>
<path d="M 217.24 330.24 C 217.66 326.26 220.83 322.49 225.07 322.58 C 229.17 322.56 232.06 326.42 232.49 330.22 C 227.41 330.27 222.32 330.32 217.24 330.24 Z" fill="#26282b" opacity="1.00" stroke="#26282b" stroke-width="0.25"/>
<path d="M 294.40 323.64 C 299.87 321.17 306.10 326.31 305.50 332.06 C 306.11 337.69 299.72 343.04 294.37 340.39 C 287.51 337.69 287.50 326.30 294.40 323.64 Z" fill="#23272a" opacity="1.00" stroke="#23272a" stroke-width="0.25"/>
<path d="M 371.37 330.28 C 371.95 326.16 375.49 321.89 380.03 322.70 C 383.88 323.00 386.02 326.82 386.71 330.23 C 381.60 330.27 376.48 330.25 371.37 330.28 Z" fill="#28282d" opacity="1.00" stroke="#28282d" stroke-width="0.25"/>
<path d="M 172.65 328.06 C 178.58 328.15 184.51 328.15 190.44 328.06 C 190.47 329.89 190.50 331.72 190.53 333.55 C 184.56 333.53 178.60 333.57 172.63 333.54 C 172.63 331.71 172.64 329.88 172.65 328.06 Z" fill="#f9f9fa" opacity="1.00" stroke="#f9f9fa" stroke-width="0.25"/>
<path d="M 330.44 334.54 C 333.67 332.33 337.83 332.60 341.57 332.53 C 341.32 335.51 340.64 338.96 337.82 340.59 C 336.08 341.91 333.84 341.46 331.82 341.53 C 331.01 340.84 330.20 340.16 329.39 339.49 C 329.43 337.83 328.70 335.60 330.44 334.54 Z" fill="#26282b" opacity="1.00" stroke="#26282b" stroke-width="0.25"/>
</svg>